<svg viewBox="0 0 100 100" version="1.1" xmlns="http://www.w3.org/2000/svg" xmlns:xlink="http://www.w3.org/1999/xlink">
    <g stroke="none" stroke-width="1" fill="#000000" fill-rule="evenodd">
        <path d="M47.00103,72.5 C43.98903,72.5 39.78903,72.131 37.02903,71.096 C36.25803,70.808 35.38803,71.195 35.09703,71.972 C34.80303,72.749 35.19603,73.613 35.97303,73.904 C39.92403,75.383 45.41403,75.5 47.00103,75.5 C47.82903,75.5 48.50103,74.828 48.50103,74 C48.50103,73.172 47.82903,72.5 47.00103,72.5 Z M80.00103,42.497 C80.00103,39.632 78.84303,37.037 76.97703,35.141 C76.98003,35.093 77.00103,35.051 77.00103,35 L77.00103,33.5 C77.00103,29.96 74.27403,26.996 70.92603,25.127 C70.15503,17.957 60.07503,14 53.00103,14 L47.00103,14 C39.93003,14 29.85003,17.957 29.07903,25.13 C25.73103,26.999 23.00103,29.96 23.00103,33.5 L23.00103,35 C23.00103,35.051 23.02503,35.093 23.03103,35.141 C21.16203,37.037 20.00103,39.632 20.00103,42.5 C20.00103,44.294 21.05703,45.845 22.57503,46.568 C19.98603,54.707 19.99203,58.073 20.00103,63.911 L20.00103,65 C20.00103,71.168 25.07403,73.445 28.24503,73.904 C29.55003,76.037 31.46703,78.11 34.22103,79.781 C39.25803,82.838 44.46303,86 50.00103,86 C55.53903,86 60.74403,82.838 65.78403,79.781 C68.53803,78.11 70.45203,76.037 71.76003,73.904 C74.93403,73.442 80.00103,71.165 80.00103,65 L80.00103,63.905 C80.01003,58.067 80.01603,54.701 77.42703,46.562 C78.94503,45.842 80.00103,44.291 80.00103,42.497 Z M47.00103,17 L53.00103,17 C58.18503,17 65.33403,19.523 67.40103,23.636 C66.05103,23.228 64.71303,23 63.50103,23 L36.50103,23 C35.29203,23 33.95103,23.228 32.60103,23.636 C34.66803,19.523 41.82003,17 47.00103,17 Z M30.50103,35 L39.50103,35 C40.32903,35 41.00103,34.328 41.00103,33.5 C41.00103,32.672 40.32903,32 39.50103,32 L30.50103,32 C28.92303,32 27.44103,32.375 26.09703,33.002 C26.58903,29.39 32.21403,26 36.50103,26 L63.50103,26 C67.79103,26 73.41003,29.39 73.90503,32.999 C72.56103,32.372 71.07603,31.997 69.49803,31.997 L60.49803,31.997 C59.67003,31.997 58.99803,32.669 58.99803,33.497 C58.99803,34.325 59.67003,34.997 60.49803,34.997 L69.49803,34.997 C73.63503,34.997 76.99803,38.363 76.99803,42.497 C76.99803,43.181 76.52703,43.736 75.90303,43.916 C74.19603,40.427 70.64103,38 66.50103,38 C63.69603,38 61.49403,39.014 59.16003,40.085 C56.58003,41.273 53.91603,42.5 50.00103,42.5 C46.08603,42.5 43.42203,41.273 40.84503,40.085 C38.50803,39.014 36.30603,38 33.50103,38 C29.36103,38 25.80903,40.43 24.09903,43.919 C23.47203,43.739 23.00103,43.184 23.00103,42.5 C23.00103,38.366 26.36703,35 30.50103,35 Z M26.63103,70.349 C24.93303,69.635 23.00103,68.156 23.00103,65 L23.00103,63.908 C22.99503,59.747 23.01603,56.972 23.95803,52.82 C24.74703,54.557 25.98603,56.048 27.54003,57.125 C26.60703,58.988 26.23803,60.818 26.10303,62.975 C26.01303,63.215 26.00703,63.467 26.04303,63.719 C26.01003,64.58 26.00103,65.495 26.00103,66.5 C26.00103,67.673 26.21703,68.99 26.63103,70.349 Z M64.22103,77.219 C59.54103,80.06 54.69903,83 50.00103,83 C45.30303,83 40.46103,80.06 35.78103,77.219 C30.78303,74.183 29.00103,69.692 29.00103,66.5 C29.00103,66.338 29.00403,66.2 29.00403,66.044 C33.33303,67.754 40.57803,68 44.00103,68 C44.82903,68 45.50103,67.328 45.50103,66.5 C45.50103,65.672 44.82903,65 44.00103,65 C36.00003,65 30.96303,63.959 29.09703,62.825 C29.22603,61.076 29.53503,59.774 30.22203,58.424 C31.26003,58.769 32.34903,59 33.50103,59 C36.43203,59 38.90403,58.265 41.29803,57.554 C43.86903,56.789 46.52403,56 50.00103,56 C53.47803,56 56.13603,56.789 58.70403,57.554 C61.09803,58.265 63.57003,59 66.50103,59 C67.65603,59 68.74503,58.769 69.78303,58.421 C70.46103,59.756 70.77003,61.043 70.90203,62.759 C68.35803,63.935 58.73103,65 50.00103,65 C49.17303,65 48.50103,65.672 48.50103,66.5 C48.50103,67.328 49.17303,68 50.00103,68 C50.17203,68 64.59003,67.925 70.99803,65.858 C71.00103,66.071 71.00103,66.272 71.00103,66.5 C71.00103,69.692 69.21903,74.183 64.22103,77.219 Z M66.50103,56 C64.00803,56 61.85103,55.361 59.56203,54.68 C56.91603,53.891 53.91603,53 50.00103,53 C46.08603,53 43.08603,53.891 40.44003,54.68 C38.15703,55.358 35.99403,56 33.50103,56 C29.36703,56 26.00103,52.634 26.00103,48.5 C26.00103,44.366 29.36703,41 33.50103,41 C35.64903,41 37.47303,41.84 39.58803,42.812 C42.33003,44.072 45.43203,45.5 50.00103,45.5 C54.57003,45.5 57.67503,44.072 60.41403,42.812 C62.53203,41.84 64.35303,41 66.50103,41 C70.63803,41 74.00103,44.366 74.00103,48.5 C74.00103,52.634 70.64103,56 66.50103,56 Z M77.00103,65 C77.00103,68.171 75.07203,69.653 73.37103,70.361 C73.78803,68.999 74.00403,67.676 74.00403,66.497 C74.00403,65.483 73.99503,64.556 73.96203,63.686 C73.99203,63.458 73.98003,63.233 73.90503,63.014 C73.77303,60.839 73.40403,58.997 72.46503,57.122 C74.01903,56.045 75.25503,54.557 76.04403,52.82 C76.98903,56.969 77.00703,59.744 77.00103,63.902 L77.00103,65 Z M66.50103,44 C66.39303,44 66.28203,44.012 66.17703,44.036 C66.03903,44.066 62.67603,44.816 54.12303,47.048 C53.54103,47.201 53.10303,47.687 53.01603,48.281 C52.92903,48.878 53.20503,49.469 53.72103,49.781 C58.94703,52.964 66.19503,53 66.50103,53 C69.23403,53 71.00103,51.233 71.00103,48.5 C71.00103,45.473 69.53103,44 66.50103,44 Z M66.50103,50 C64.93503,50 61.97103,49.73 59.10003,48.863 C63.72303,47.684 66.06303,47.138 66.66603,47 C67.87503,47.012 68.00103,47.198 68.00103,48.5 C68.00103,49.4 67.74603,50 66.50103,50 Z M56.00103,72.5 L53.00103,72.5 C52.17303,72.5 51.50103,73.172 51.50103,74 C51.50103,74.828 52.17303,75.5 53.00103,75.5 L56.00103,75.5 C56.82903,75.5 57.50103,74.828 57.50103,74 C57.50103,73.172 56.82903,72.5 56.00103,72.5 Z M45.87903,47.048 C37.32603,44.819 33.96303,44.066 33.82503,44.036 C33.72003,44.012 33.60903,44 33.50103,44 C30.47103,44 29.00103,45.473 29.00103,48.5 C29.00103,51.233 30.76803,53 33.50103,53 C33.80703,53 41.05503,52.964 46.28103,49.781 C46.79703,49.469 47.07003,48.878 46.98603,48.281 C46.89903,47.687 46.46103,47.201 45.87903,47.048 Z M33.50103,50 C32.25903,50 32.00103,49.4 32.00103,48.5 C32.00103,47.195 32.13003,47.012 33.33603,47 C33.93903,47.138 36.27903,47.684 40.90203,48.863 C38.03103,49.73 35.07003,50 33.50103,50 Z"></path>
    </g>
</svg>
